<?xml version="1.0" encoding="UTF-8"?><svg xmlns="http://www.w3.org/2000/svg" viewBox="0 0 140.98 143.4"><defs><style>.d{fill:#00aae5;}.e{fill:#ecbf00;}.f{fill:#2e3e91;}</style></defs><g id="a"/><g id="b"><g id="c"><path class="e" d="M68.16,128.42c-31.22,0-54.98-22.15-54.98-57.2S37.75,14.43,68.96,14.43s55.79,21.95,55.79,56.79-25.17,57.2-56.59,57.2Zm0-16.11c19.13,0,37.86-13.09,37.86-41.09s-18.33-40.88-37.26-40.88-36.86,13.09-36.86,40.88,17.12,41.09,36.25,41.09Z"/><path class="d" d="M70.49,143.4C31.02,143.4,0,113.79,0,71.7S31.02,0,70.49,0s70.49,29.61,70.49,71.7-30.81,71.7-70.49,71.7Zm0-15.91c29.61,0,51.76-21.55,51.76-55.79S100.1,15.91,70.49,15.91,18.73,37.26,18.73,71.7s22.15,55.79,51.76,55.79Z"/><path class="f" d="M70.16,94.42c-12.65,0-22.42-9.76-22.42-22.42s9.76-22.42,22.42-22.42c11.93,0,21.69,9.76,21.69,22.42s-9.76,22.42-21.69,22.42Z"/></g></g></svg>