<?xml version="1.0" encoding="UTF-8"?><svg xmlns="http://www.w3.org/2000/svg" viewBox="0 0 491.16 178.97"><defs><style>.d{fill:#00aae5;}.e{fill:#ecbf00;}.f{fill:#2e3e91;}</style></defs><g id="a"/><g id="b"><g id="c"><g><path class="e" d="M47.78,134.44H15.93l-5.87,16.24H0L26.4,78.07h11l26.3,72.61h-10.06l-5.87-16.24Zm-15.93-44.64l-13.2,36.88h26.41l-13.2-36.88Z"/><path class="e" d="M145.54,118.2c0-11.74-6.29-17.71-15.72-17.71s-16.24,6.18-16.24,18.55v31.64h-9.43v-32.48c0-11.74-6.29-17.71-15.72-17.71s-16.24,6.18-16.24,18.55v31.64h-9.54v-57.42h9.54v8.28c3.77-6.08,10.58-9.33,18.13-9.33,9.43,0,17.29,4.19,21.06,12.78,3.35-8.28,11.53-12.78,20.33-12.78,13.1,0,23.26,8.17,23.26,24.62v33.84h-9.43v-32.48Z"/><path class="e" d="M156.44,77.44c0-3.67,2.83-6.5,6.5-6.5,3.46,0,6.29,2.83,6.29,6.5s-2.83,6.5-6.29,6.5c-3.67,0-6.5-2.83-6.5-6.5Zm1.57,15.82h9.54v57.42h-9.54v-57.42Z"/><path class="e" d="M194.89,92.32c10.48,0,18.02,5.24,21.38,11.42v-10.48h9.64v58.68c0,15.82-10.58,27.03-27.45,27.03-15.09,0-25.88-7.65-27.77-19.91h9.43c2.1,6.92,8.91,11.63,18.34,11.63,10.16,0,17.81-6.5,17.81-18.76v-12.05c-3.46,6.18-10.9,11.74-21.38,11.74-15.4,0-27.24-12.05-27.24-29.86s11.84-29.44,27.24-29.44Zm1.89,8.28c-10.48,0-19.38,7.65-19.38,21.17s8.91,21.48,19.38,21.48,19.49-7.86,19.49-21.38-9.01-21.27-19.49-21.27Z"/><path class="e" d="M254.51,151.63c-16.24,0-28.61-11.53-28.61-29.76s12.78-29.55,29.02-29.55,29.02,11.42,29.02,29.55-13.1,29.76-29.44,29.76Zm0-8.38c9.95,0,19.7-6.81,19.7-21.38s-9.54-21.27-19.38-21.27-19.17,6.81-19.17,21.27,8.91,21.38,18.86,21.38Z"/></g><g><path class="d" d="M255.72,159.42c-20.54,0-36.67-15.4-36.67-37.3s16.14-37.3,36.67-37.3,36.67,15.4,36.67,37.3-16.03,37.3-36.67,37.3Zm0-8.28c15.4,0,26.93-11.21,26.93-29.02s-11.53-29.02-26.93-29.02-26.93,11.11-26.93,29.02,11.53,29.02,26.93,29.02Z"/><path class="d" d="M316.81,100.32c14.25,0,23.58,7.33,26.51,19.38h-10.27c-1.99-6.92-7.75-11.32-16.24-11.32-10.48,0-18.23,7.44-18.23,21.48s7.75,21.69,18.23,21.69c8.49,0,14.15-4.09,16.24-11.32h10.27c-2.93,11.42-12.26,19.38-26.51,19.38-16.35,0-27.98-11.53-27.98-29.76s11.63-29.55,27.98-29.55Z"/><path class="d" d="M394.34,158.68h-9.54v-8.49c-3.67,5.97-10.69,9.33-18.34,9.33-13.2,0-23.58-8.17-23.58-24.62v-33.63h9.43v32.38c0,11.63,6.39,17.6,16.03,17.6s16.45-6.08,16.45-18.44v-31.54h9.54v57.42Z"/><path class="d" d="M397.91,81.14h9.54v77.54h-9.54V81.14Z"/><path class="d" d="M413.2,109.12h-7.44v-7.86h7.44v-14.46h9.54v14.46h14.98v7.86h-14.98v33.84c0,5.66,2.1,7.65,7.96,7.65h7.02v8.07h-8.59c-10.16,0-15.93-4.19-15.93-15.72v-33.84Z"/><path class="d" d="M461.72,159.63c-16.24,0-28.61-11.53-28.61-29.76s12.78-29.55,29.02-29.55,29.02,11.42,29.02,29.55-13.1,29.76-29.44,29.76Zm0-8.38c9.95,0,19.7-6.81,19.7-21.38s-9.54-21.27-19.38-21.27-19.17,6.81-19.17,21.27,8.91,21.38,18.86,21.38Z"/></g><path class="f" d="M267.4,0c24.64,0,41.57,14.86,41.57,38.75,0,27.46-19,38.75-45.33,38.75l-.56,17.87h-14.86l-.75-29.72h5.46c21.44,0,39.69-4.14,39.69-26.9,0-15.05-9.78-24.45-25.02-24.45s-25.02,8.84-25.02,23.51h-16.18c-.19-22.76,16.37-37.81,41.01-37.81Zm-11.85,133.93c-6.58,0-11.66-5.08-11.66-11.66s5.08-11.66,11.66-11.66c6.21,0,11.29,5.08,11.29,11.66s-5.08,11.66-11.29,11.66Z"/></g></g></svg>